# xmcd CD database file
#
# Track frame offsets:
#	150
#	13440
#	25050
#	39085
#	50747
#	62151
#	71956
#	82922
#	94958
#	107372
#	119630
#	132402
#	149537
#	163184
#
# Disc length: 2387 seconds
#
# Revision: 0
# Processed by: cddbd v1.5.1PL0 Copyright (c) Steve Scherf et al.
# Submitted via: CDex 1.50beta9
#
DISCID=cc09510e
DTITLE=RICHIE KAVANAGH - NO DRINK NO MORE
DYEAR=1900
DGENRE=Country
TTITLE0=No Drink No More
TTITLE1=Carlow 15
TTITLE2=Paddy's Day
TTITLE3=Concrete Paddy
TTITLE4=Cottage On The Borderline
TTITLE5=Seamus An Me
TTITLE6=With A 123
TTITLE7=The Farmers Ball
TTITLE8=Famly Farm Svrvival
TTITLE9=Drumphea On A Hill
TTITLE10=Keep Your Hands Off Me
TTITLE11=How's Gardan Bennett Race
TTITLE12=How's Your Whole Family
TTITLE13=If I Could Drink 500 Pints
EXTD=
EXTT0=
EXTT1=
EXTT2=
EXTT3=
EXTT4=
EXTT5=
EXTT6=
EXTT7=
EXTT8=
EXTT9=
EXTT10=
EXTT11=
EXTT12=
EXTT13=
PLAYORDER=
